<?xml version="1.0" encoding="UTF-8"?>
<svg version="1.1" xmlns="http://www.w3.org/2000/svg" width="44" height="44">
<path d="M0 0 C14.52 0 29.04 0 44 0 C44 14.52 44 29.04 44 44 C29.48 44 14.96 44 0 44 C0 29.48 0 14.96 0 0 Z " fill="#020101" transform="translate(0,0)"/>
<path d="M0 0 C0.66 0.66 1.32 1.32 2 2 C2.37125 1.484375 2.7425 0.96875 3.125 0.4375 C5 -1 5 -1 8.1875 -0.6875 C9.115625 -0.460625 10.04375 -0.23375 11 0 C11 0.99 11 1.98 11 3 C10.34 3 9.68 3 9 3 C9.33 3.99 9.66 4.98 10 6 C10.09203743 7.51861755 10.13001284 9.04110426 10.125 10.5625 C10.12886719 11.74005859 10.12886719 11.74005859 10.1328125 12.94140625 C10 15 10 15 9 17 C9.66 17.66 10.32 18.32 11 19 C9.02 19.66 7.04 20.32 5 21 C6.32 21.33 7.64 21.66 9 22 C9 22.66 9 23.32 9 24 C9.31478446 25.33783393 9.64587656 26.67203709 10 28 C8.68 28 7.36 28 6 28 C5.67 29.32 5.34 30.64 5 32 C-0.5023086 33.37557715 -2.99494436 32.82760996 -7.87109375 30.05078125 C-10.88227406 28.56452895 -13.92184433 28.04572771 -17.21484375 27.4921875 C-17.80394531 27.32976563 -18.39304687 27.16734375 -19 27 C-19.33 26.34 -19.66 25.68 -20 25 C-19.67 24.34 -19.34 23.68 -19 23 C-18.34 23 -17.68 23 -17 23 C-15.3798144 15.3453137 -15.3798144 15.3453137 -15.125 7.5625 C-15 4 -15 4 -13.1875 1.5625 C-8.59623869 -1.71697236 -5.28092781 -0.92206676 0 0 Z " fill="#612C4D" transform="translate(26,7)"/>
<path d="M0 0 C3.48249231 1.25756667 6.06465849 2.7731892 9 5 C9.66 5 10.32 5 11 5 C11.33 4.34 11.66 3.68 12 3 C15.15127548 3.70028344 18.01642824 4.77597056 21 6 C21.99 6.33 22.98 6.66 24 7 C24 7.66 24 8.32 24 9 C24.31478446 10.33783393 24.64587656 11.67203709 25 13 C23.68 13 22.36 13 21 13 C20.67 14.32 20.34 15.64 20 17 C14.4976914 18.37557715 12.00505564 17.82760996 7.12890625 15.05078125 C4.11772594 13.56452895 1.07815567 13.04572771 -2.21484375 12.4921875 C-2.80394531 12.32976563 -3.39304687 12.16734375 -4 12 C-4.33 11.34 -4.66 10.68 -5 10 C-4.67 9.34 -4.34 8.68 -4 8 C-3.34 8 -2.68 8 -2 8 C-1.34 5.36 -0.68 2.72 0 0 Z " fill="#6B5B7F" transform="translate(11,22)"/>
<path d="M0 0 C3.125 0.375 3.125 0.375 6 1 C6 1.99 6 2.98 6 4 C5.34 4 4.68 4 4 4 C4.33 4.99 4.66 5.98 5 7 C5.09203743 8.51861755 5.13001284 10.04110426 5.125 11.5625 C5.12886719 12.74005859 5.12886719 12.74005859 5.1328125 13.94140625 C5 16 5 16 4 18 C4.66 18.66 5.32 19.32 6 20 C-1.06086957 22.31304348 -1.06086957 22.31304348 -5.375 20.875 C-9.2460733 18.10994764 -9.2460733 18.10994764 -10 15 C-9.125 12.75 -9.125 12.75 -8 11 C-9.98 11.66 -11.96 12.32 -14 13 C-13.34 11.68 -12.68 10.36 -12 9 C-10.6078125 9.0309375 -10.6078125 9.0309375 -9.1875 9.0625 C-5.97713989 9.15769604 -5.97713989 9.15769604 -3 8 C-2.87625 7.05125 -2.7525 6.1025 -2.625 5.125 C-2 2 -2 2 0 0 Z " fill="#5E2D2C" transform="translate(31,6)"/>
<path d="M0 0 C2.9719385 1.12451727 5.33440687 2.22293791 8 4 C7.773125 4.7425 7.54625 5.485 7.3125 6.25 C6.69325956 9.04278367 6.69325956 9.04278367 8.4375 11.125 C9.2109375 12.053125 9.2109375 12.053125 10 13 C10 13.99 10 14.98 10 16 C9.0409375 15.566875 9.0409375 15.566875 8.0625 15.125 C4.70108576 13.89019477 1.40447935 13.21407564 -2.109375 12.5625 C-2.73328125 12.376875 -3.3571875 12.19125 -4 12 C-4.33 11.34 -4.66 10.68 -5 10 C-4.67 9.34 -4.34 8.68 -4 8 C-3.34 8 -2.68 8 -2 8 C-1.34 5.36 -0.68 2.72 0 0 Z " fill="#C7B3A2" transform="translate(11,22)"/>
<path d="M0 0 C2.5 0.25 2.5 0.25 4.5 2.25 C4.625 5.875 4.625 5.875 4.5 9.25 C1.79120665 10.60439668 -0.50933268 10.31501451 -3.5 10.25 C-3.5 9.59 -3.5 8.93 -3.5 8.25 C-4.16 8.25 -4.82 8.25 -5.5 8.25 C-4.48237885 0.44823789 -4.48237885 0.44823789 0 0 Z " fill="#AD5E76" transform="translate(30.5,14.75)"/>
<path d="M0 0 C-0.33 0.99 -0.66 1.98 -1 3 C-2.65697379 3.69040574 -4.3255761 4.3530635 -6 5 C-7.70294787 6.28667172 -9.37946188 7.61096733 -11 9 C-12 8 -12 8 -12.375 5.125 C-12 2 -12 2 -9.9375 0.0625 C-6.25290336 -1.27022644 -3.78571484 -0.81652673 0 0 Z " fill="#C13743" transform="translate(25,7)"/>
<path d="M0 0 C1.32 1.32 2.64 2.64 4 4 C3 7 3 7 0 9 C-0.99 8.95875 -1.98 8.9175 -3 8.875 C-6.11424728 8.65393634 -6.11424728 8.65393634 -7.875 11 C-8.24625 11.66 -8.6175 12.32 -9 13 C-9.66 12.67 -10.32 12.34 -11 12 C-9.73034469 10.56145942 -8.45922782 9.12420873 -7.1875 7.6875 C-6.47980469 6.88699219 -5.77210937 6.08648437 -5.04296875 5.26171875 C-3.40662878 3.45016838 -1.74727832 1.70318297 0 0 Z " fill="#793F2C" transform="translate(25,7)"/>
<path d="M0 0 C2.00720923 0.28674418 4.0085944 0.61866701 6 1 C6 1.99 6 2.98 6 4 C5.34 4 4.68 4 4 4 C4.33 4.99 4.66 5.98 5 7 C5.06740865 8.56118428 5.08514456 10.1250252 5.0625 11.6875 C5.05347656 12.49574219 5.04445313 13.30398437 5.03515625 14.13671875 C5.02355469 14.75160156 5.01195312 15.36648437 5 16 C4.67 16 4.34 16 4 16 C3.90203125 15.37351562 3.8040625 14.74703125 3.703125 14.1015625 C3.55359375 13.28429688 3.4040625 12.46703125 3.25 11.625 C3.11078125 10.81289063 2.9715625 10.00078125 2.828125 9.1640625 C2.18250739 6.82290908 2.18250739 6.82290908 -0.078125 5.7109375 C-0.71234375 5.47632813 -1.3465625 5.24171875 -2 5 C-1.125 1.125 -1.125 1.125 0 0 Z " fill="#513A38" transform="translate(31,6)"/>
<path d="M0 0 C0.33 0 0.66 0 1 0 C1.33 1.65 1.66 3.3 2 5 C3.98 3.35 5.96 1.7 8 0 C8.66 0.33 9.32 0.66 10 1 C8.89718873 2.27200971 7.79269231 3.54255853 6.6875 4.8125 C5.76517578 5.87404297 5.76517578 5.87404297 4.82421875 6.95703125 C3.26665665 8.70136739 1.67341125 10.36778041 0 12 C-1.29449495 8.11651516 -1.13203312 5.09302664 -1 1 C-0.67 0.67 -0.34 0.34 0 0 Z " fill="#741E2F" transform="translate(12,10)"/>
<path d="M0 0 C2.9719385 1.12451727 5.33440687 2.22293791 8 4 C7.67 5.32 7.34 6.64 7 8 C4.36 7.34 1.72 6.68 -1 6 C-0.67 4.02 -0.34 2.04 0 0 Z " fill="#BB9749" transform="translate(11,22)"/>
<path d="M0 0 C0.99 0.33 1.98 0.66 3 1 C3 1.99 3 2.98 3 4 C1.68 4 0.36 4 -1 4 C-1.33 5.32 -1.66 6.64 -2 8 C-5.375 8.625 -5.375 8.625 -9 9 C-9.66 8.34 -10.32 7.68 -11 7 C-8.69 7 -6.38 7 -4 7 C-3.8453125 6.1028125 -3.8453125 6.1028125 -3.6875 5.1875 C-2.91123545 2.71756736 -1.92911079 1.67748765 0 0 Z " fill="#A798A2" transform="translate(33,31)"/>
<path d="M0 0 C0.78375 0.04125 1.5675 0.0825 2.375 0.125 C2.705 0.785 3.035 1.445 3.375 2.125 C2.385 2.785 1.395 3.445 0.375 4.125 C-0.6459375 5.176875 -0.6459375 5.176875 -1.6875 6.25 C-3.625 8.125 -3.625 8.125 -5.625 8.125 C-4.59375 0.21875 -4.59375 0.21875 0 0 Z " fill="#DCA4B5" transform="translate(30.625,14.875)"/>
<path d="M0 0 C0.33 0.99 0.66 1.98 1 3 C2.65204456 3.70211894 4.31923769 4.36971413 6 5 C6.33 5.66 6.66 6.32 7 7 C0.47692308 7.36923077 0.47692308 7.36923077 -1.9375 5.5 C-2.4634375 4.7575 -2.4634375 4.7575 -3 4 C-2.67 3.34 -2.34 2.68 -2 2 C-1.34 2 -0.68 2 0 2 C0 1.34 0 0.68 0 0 Z " fill="#9F8892" transform="translate(9,28)"/>
<path d="M0 0 C0.99 0 1.98 0 3 0 C2.67 2.31 2.34 4.62 2 7 C-0.64 7.33 -3.28 7.66 -6 8 C-6.33 6.68 -6.66 5.36 -7 4 C-4.69 4.66 -2.38 5.32 0 6 C0 4.02 0 2.04 0 0 Z " fill="#47579D" transform="translate(27,31)"/>
<path d="M0 0 C0.66 0 1.32 0 2 0 C2 0.66 2 1.32 2 2 C2.66 2 3.32 2 4 2 C4 2.66 4 3.32 4 4 C4.66 4.33 5.32 4.66 6 5 C5.67 5.99 5.34 6.98 5 8 C3.68 7.34 2.36 6.68 1 6 C1 5.34 1 4.68 1 4 C0.01 3.67 -0.98 3.34 -2 3 C-1.34 2.01 -0.68 1.02 0 0 Z " fill="#3B65C1" transform="translate(20,27)"/>
<path d="M0 0 C2.92879371 0.62759865 5.36095629 1.58622659 8 3 C8 3.66 8 4.32 8 5 C2.25 5.125 2.25 5.125 0 4 C0 2.68 0 1.36 0 0 Z " fill="#AD8B7B" transform="translate(23,25)"/>
<path d="M0 0 C0 0.66 0 1.32 0 2 C-3 4 -3 4 -5.1875 3.625 C-5.785625 3.41875 -6.38375 3.2125 -7 3 C-6.67 2.01 -6.34 1.02 -6 0 C-3.50907189 -1.24546405 -2.58919267 -0.7767578 0 0 Z " fill="#BA9047" transform="translate(28,12)"/>
<path d="M0 0 C2 1.8125 2 1.8125 4 4 C4 4.99 4 5.98 4 7 C1.5625 6.1875 1.5625 6.1875 -1 5 C-1.33 4.01 -1.66 3.02 -2 2 C-1.34 1.34 -0.68 0.68 0 0 Z " fill="#BCABA0" transform="translate(17,31)"/>
<path d="M0 0 C0.99 0.33 1.98 0.66 3 1 C2.01 2.485 2.01 2.485 1 4 C0.34 4 -0.32 4 -1 4 C-1.33 4.66 -1.66 5.32 -2 6 C-2 5.01 -2 4.02 -2 3 C-3.98 3 -5.96 3 -8 3 C-7.67 2.34 -7.34 1.68 -7 1 C-5.5459375 1.0309375 -5.5459375 1.0309375 -4.0625 1.0625 C-1.12534105 1.35618499 -1.12534105 1.35618499 0 0 Z " fill="#6E5D54" transform="translate(32,28)"/>
<path d="M0 0 C2.475 0.495 2.475 0.495 5 1 C5.33 1.99 5.66 2.98 6 4 C4.02 4 2.04 4 0 4 C0 2.68 0 1.36 0 0 Z " fill="#351D19" transform="translate(28,11)"/>
<path d="M0 0 C0.33 0.66 0.66 1.32 1 2 C1.66 2 2.32 2 3 2 C2.34 3.32 1.68 4.64 1 6 C0.01 6 -0.98 6 -2 6 C-2 4.35 -2 2.7 -2 1 C-1.34 0.67 -0.68 0.34 0 0 Z " fill="#D33640" transform="translate(15,9)"/>
<path d="M0 0 C1.67542976 0.28604898 3.34385343 0.61781233 5 1 C5 1.66 5 2.32 5 3 C4.401875 3.144375 3.80375 3.28875 3.1875 3.4375 C1.43849596 3.8872439 -0.28677023 4.42892341 -2 5 C-1.125 1.125 -1.125 1.125 0 0 Z " fill="#32665E" transform="translate(31,6)"/>
<path d="M0 0 C2.31 0.33 4.62 0.66 7 1 C6.67 1.99 6.34 2.98 6 4 C5.34 4 4.68 4 4 4 C4 3.34 4 2.68 4 2 C2.35 2 0.7 2 -1 2 C-0.67 1.34 -0.34 0.68 0 0 Z " fill="#B25C6B" transform="translate(18,6)"/>
<path d="M0 0 C0.99 0 1.98 0 3 0 C3 1.98 3 3.96 3 6 C2.67 5.34 2.34 4.68 2 4 C1.01 4.33 0.02 4.66 -1 5 C-0.67 3.35 -0.34 1.7 0 0 Z " fill="#825B6E" transform="translate(20,23)"/>
<path d="M0 0 C0.556875 0.185625 1.11375 0.37125 1.6875 0.5625 C4.399133 1.07551165 6.34371039 0.6640724 9 0 C8.01 0.495 8.01 0.495 7 1 C6.67 1.99 6.34 2.98 6 4 C4.35 3.67 2.7 3.34 1 3 C0.67 2.01 0.34 1.02 0 0 Z " fill="#8E3F3D" transform="translate(13,22)"/>
</svg>
